<?xml version="1.0" standalone="no"?>
<!DOCTYPE svg PUBLIC "-//W3C//DTD SVG 20010904//EN"
 "http://www.w3.org/TR/2001/REC-SVG-20010904/DTD/svg10.dtd">
<svg version="1.0" xmlns="http://www.w3.org/2000/svg"
 width="84.000000pt" height="84.000000pt" viewBox="0 0 84.000000 84.000000"
 preserveAspectRatio="xMidYMid meet">
<metadata>
Created by potrace 1.14, written by Peter Selinger 2001-2017
</metadata>
<g transform="translate(0.000000,84.000000) scale(0.100000,-0.100000)"
fill="#000000" stroke="none">
<path d="M384 761 c-29 -13 -74 -69 -74 -92 0 -28 17 -58 53 -96 25 -26 26
-31 10 -27 -29 8 -87 -46 -100 -93 -6 -21 -19 -65 -28 -98 -26 -90 -33 -95
-132 -95 -49 0 -83 -4 -83 -10 0 -6 -5 -9 -11 -8 -6 2 -13 -10 -16 -25 -5 -33
43 -85 98 -106 19 -7 45 -18 58 -25 33 -15 489 -15 522 0 13 7 39 18 58 25 55
21 103 73 98 106 -3 15 -10 27 -16 25 -6 -1 -11 2 -11 8 0 6 -34 10 -83 10
-99 0 -106 5 -131 95 -10 33 -22 77 -28 98 -15 49 -71 100 -101 91 -19 -5 -18
-2 9 27 64 69 69 104 22 154 -35 37 -78 51 -114 36z m67 -61 c26 -14 23 -49
-6 -85 l-25 -30 -25 30 c-28 35 -31 57 -9 79 18 19 38 20 65 6z m-116 -286
c-26 -62 -31 -118 -16 -171 12 -42 6 -45 -35 -21 l-34 20 19 24 c11 14 27 57
36 97 15 66 41 125 50 115 3 -2 -7 -31 -20 -64z m186 2 c26 -98 42 -142 55
-157 13 -15 11 -19 -19 -37 l-34 -20 1 92 c1 76 -3 98 -21 135 -27 53 -28 58
-8 41 8 -7 20 -31 26 -54z m-75 7 c25 -64 26 -178 1 -216 -22 -34 -32 -34 -54
0 -25 38 -24 152 1 216 10 26 22 47 26 47 4 0 16 -21 26 -47z m-302 -229 c5
-13 15 -15 40 -11 23 4 49 -2 85 -18 28 -13 51 -27 51 -31 0 -4 -33 -4 -72 -1
-93 7 -187 44 -172 68 9 16 61 10 68 -7z m620 1 c-3 -30 -149 -72 -219 -63
-29 4 -28 5 25 31 40 20 64 25 87 21 25 -5 34 -2 39 10 5 12 16 16 38 14 17
-2 31 -7 30 -13z"/>
</g>
</svg>
